<svg width="58" height="56" viewBox="0 0 58 56" fill="none" xmlns="http://www.w3.org/2000/svg">
  <path fill-rule="evenodd" clip-rule="evenodd"
    d="M26.047 8.42072H17.4169L24.3812 13.5373L21.9712 21.0262H14.1386L11.4627 12.776L8.78686 21.0262H0.156784L7.13881 26.1427L4.46296 34.393L11.445 29.3118L17.9131 34.0389L15.4499 41.7048L6.81984 41.7402L13.8196 46.8214L11.1615 55.0893L18.1435 49.9728L25.1432 55.0539L22.4674 46.8037L28.7051 42.1651L34.9075 46.786L32.2316 55.0362L39.2313 49.9551L46.2134 55.0716L43.573 46.8037L50.5727 41.7225L41.9427 41.6871L39.4795 34.0212L45.9476 29.2941L52.9296 34.3753L50.2537 26.125L57.2358 21.0085H48.6057L45.9299 12.7583L43.254 21.0085H35.4214L33.0113 13.5196L39.9934 8.40301H31.3633L28.6874 0.135101L26.047 8.42072ZM37.796 9.21741H31.6645L32.8341 12.8468L37.796 9.21741ZM19.6675 9.21741H25.7989L24.6293 12.8468L19.6675 9.21741ZM20.8371 41.7048L18.4625 34.4107L15.8043 26.1427L21.7408 21.8052L28.7406 16.6886L35.7403 21.8052L41.6768 26.1427L39.0187 34.4107L36.6441 41.7048H28.1381H20.8371ZM11.5336 15.1484L9.63746 21.0262H13.4297L11.5336 15.1484ZM5.91608 32.4986L7.81221 26.6385L10.8779 28.8869L5.91608 32.4986ZM47.8083 21.0262L45.9121 15.1484L44.016 21.0262H47.8083ZM49.6158 26.6208L51.5119 32.4809L46.5324 28.8692L49.6158 26.6208ZM48.3045 42.413L43.3426 46.0247L42.173 42.3776L48.3045 42.413ZM33.6138 53.0887L38.5934 49.477L35.5277 47.2286L33.6138 53.0887ZM14.1031 46.0424L9.12355 42.4307L15.255 42.413L14.1031 46.0424ZM18.8523 49.4947L23.8319 53.1064L21.918 47.2463L18.8523 49.4947Z"
    fill="#084F95" />
</svg>